<?xml version="1.0" encoding="UTF-8"?>
<svg id="_图层_1" data-name="图层 1" xmlns="http://www.w3.org/2000/svg" viewBox="0 0 666.55 956.83">
  <defs>
    <style>
      .cls-1 {
        fill: #036eb8;
      }

      .cls-2 {
        fill: #2ea7e0;
      }
    </style>
  </defs>
  <rect class="cls-2" x="277.92" y="24.95" width="388.63" height="149.72" rx="18.35" ry="18.35"/>
  <rect class="cls-2" x="277.92" y="429.94" width="388.63" height="149.72" rx="18.35" ry="18.35"/>
  <path class="cls-2" d="M648.2,956.83H78.62l28.01-135.1c1.77-8.52,9.27-14.62,17.97-14.62H648.2c10.13,0,18.35,8.21,18.35,18.35v113.02c0,10.13-8.21,18.35-18.35,18.35Z"/>
  <path class="cls-1" d="M71.91,0H349.24c13.3,0,22.18,13.71,16.74,25.85L211.31,371.11c-5.41,12.08,3.37,25.75,16.61,25.85l136.6,1.02c14,.1,22.73,15.23,15.82,27.41L78.62,956.83l40.36-411.69c1.05-10.74-7.34-20.06-18.13-20.14l-82.62-.57c-10.88-.08-19.3-9.54-18.11-20.35L53.68,16.35C54.7,7.04,62.56,0,71.91,0Z"/>
</svg>