<?xml version="1.0" encoding="UTF-8"?>
<svg id="_图层_1" data-name="图层 1" xmlns="http://www.w3.org/2000/svg" viewBox="0 0 960.98 969.26">
  <defs>
    <style>
      .cls-1 {
        fill: #036eb8;
      }

      .cls-2 {
        fill: #2ea7e0;
        stroke: #2ea7e0;
        stroke-linecap: round;
        stroke-miterlimit: 10;
        stroke-width: 62px;
      }
    </style>
  </defs>
  <path class="cls-2" d="M341.93,31H929.8c.12,0,.2,.11,.17,.22l-33.1,120.9c-.02,.08-.09,.13-.17,.13h-349.41c-.12,0-.2-.12-.17-.23l13.06-41.51c.03-.09-.02-.19-.11-.22L341.87,31.34c-.19-.07-.14-.34,.06-.34Z"/>
  <path class="cls-2" d="M494.72,369.47h348.12c.79,0,1.37,.75,1.16,1.52l-32.54,118.85c-.14,.52-.62,.88-1.16,.88H454.18c-.82,0-1.4-.81-1.14-1.59l40.54-118.85c.17-.49,.62-.81,1.14-.81Z"/>
  <path class="cls-2" d="M376.52,698.94h369.45c2.07,0,3.58,1.97,3.03,3.97l-31.48,114.97c-.37,1.37-1.61,2.31-3.03,2.31H334.68c-2.18,0-3.7-2.17-2.95-4.22l41.83-114.97c.45-1.24,1.63-2.07,2.95-2.07Z"/>
  <path class="cls-1" d="M232.31,876.22l-124.2,85.39c-24.52,16.86-58.34,4.55-66.28-24.13L1.57,792.24c-2.41-8.69-2.04-17.91,1.04-26.38L248.24,90.99c8.18-22.48,33.04-34.07,55.52-25.89l164.45,59.86c22.48,8.18,34.07,33.04,25.89,55.52L248.48,855.35c-3.08,8.47-8.73,15.77-16.16,20.88Z"/>
</svg>